<?xml version="1.0" standalone="no"?><!DOCTYPE svg PUBLIC "-//W3C//DTD SVG 1.1//EN" "http://www.w3.org/Graphics/SVG/1.1/DTD/svg11.dtd"><svg t="1720599079901" class="icon" viewBox="0 0 1024 1024" version="1.1" xmlns="http://www.w3.org/2000/svg" p-id="3995" xmlns:xlink="http://www.w3.org/1999/xlink" width="200" height="200"><path d="M512.2 146.4c49.4 0 97.2 9.7 142.2 28.7 43.5 18.4 82.6 44.8 116.2 78.3 33.6 33.6 59.9 72.7 78.3 116.2 19 45 28.7 92.8 28.7 142.2S868 609 848.9 654c-18.4 43.5-44.8 82.6-78.3 116.2-33.6 33.6-72.7 59.9-116.2 78.3-45 19-92.8 28.7-142.2 28.7S415 867.6 370 848.5c-43.5-18.4-82.6-44.8-116.2-78.3-33.6-33.6-59.9-72.7-78.3-116.2-19-45-28.7-92.8-28.7-142.2s9.7-97.2 28.7-142.2c18.4-43.5 44.8-82.6 78.3-116.2 33.6-33.6 72.7-59.9 116.2-78.3 45-19.1 92.8-28.7 142.2-28.7m0-82c-247.1 0-447.4 200.3-447.4 447.4s200.3 447.4 447.4 447.4 447.4-200.3 447.4-447.4S759.3 64.4 512.2 64.4z" p-id="3996"></path><path d="M477.8 485.9l157.4-157.4c16.3-16.3 16.3-42.9 0-59.2-16.3-16.3-42.9-16.3-59.2 0L389.9 455.6l-0.8 0.8c-8.1 8.1-12.2 18.9-12.2 29.6 0 10.7 4.1 21.5 12.2 29.6l0.8 0.8 186.2 186.2c16.3 16.3 42.9 16.3 59.2 0 16.3-16.3 16.3-42.9 0-59.2L477.8 485.9z" p-id="3997"></path></svg>