<?xml version="1.0" standalone="no"?><!DOCTYPE svg PUBLIC "-//W3C//DTD SVG 1.1//EN" "http://www.w3.org/Graphics/SVG/1.1/DTD/svg11.dtd"><svg t="1720511965163" class="icon" viewBox="0 0 1024 1024" version="1.1" xmlns="http://www.w3.org/2000/svg" p-id="8277" xmlns:xlink="http://www.w3.org/1999/xlink" width="200" height="200"><path d="M44.58131933 531.96800033C49.79234133 795.31804433 267.92709733 1004.53262233 531.64123033 999.34435533 795.37811933 994.11057732 1005.04780833 776.33991133 999.72300833 513.03537733 994.39820833 249.68533333 776.35447433 40.47075533 512.66309733 45.68177733c-263.736889 5.211022-473.270044 223.004444-468.081778 486.286223z m329.3184-27.761778l260.096-259.709156a25.668267 25.668267 0 0 1 36.295111 36.2496L428.19447433 522.56995533 670.40460833 764.25671133A25.645511 25.645511 0 0 1 634.13225233 800.48355533L374.03625233 540.81991133c-5.097244-5.074489-7.509333-11.719111-7.509333-18.363734-0.113778-6.508089 2.412089-13.152711 7.39555501-18.2272z" fill="#515151" p-id="8278"></path></svg>