<?xml version="1.0" standalone="no"?><!DOCTYPE svg PUBLIC "-//W3C//DTD SVG 1.1//EN" "http://www.w3.org/Graphics/SVG/1.1/DTD/svg11.dtd"><svg t="1720511973981" class="icon" viewBox="0 0 1024 1024" version="1.1" xmlns="http://www.w3.org/2000/svg" p-id="8479" xmlns:xlink="http://www.w3.org/1999/xlink" width="200" height="200"><path d="M1000.752014 513.365333C995.540992 250.015289 777.406236 40.800711 513.692103 45.988978 249.955214 51.222756 40.285525 268.993422 45.610325 532.297956 50.935125 795.648 268.978859 1004.862578 532.670236 999.651556c263.736889-5.211022 473.270044-223.004444 468.081778-486.286223z m-329.3184 27.761778l-260.096 259.709156a25.668267 25.668267 0 0 1-36.295111-36.2496L617.138859 522.763378 374.928725 281.076622A25.645511 25.645511 0 0 1 411.201081 244.849778L671.297081 504.513422c5.097244 5.074489 7.509333 11.719111 7.509333 18.363734 0.113778 6.508089-2.412089 13.152711-7.395555 18.2272z" fill="#515151" p-id="8480"></path></svg>